<mxfile host="drawio-plugin" modified="2023-05-24T09:47:02.979Z" agent="5.0 (Windows NT 6.2; Win64; x64) AppleWebKit/537.36 (KHTML, like Gecko) Chrome/104.0.5112.102 Safari/537.36" etag="xnbe68-dsY4eZfdtCeEa" version="20.5.3" type="embed"><diagram id="fLNG6U10Jc3AvwP7Pfjn" name="Page-1"><mxGraphModel dx="1222" dy="-100" grid="0" gridSize="10" guides="1" tooltips="1" connect="1" arrows="1" fold="1" page="0" pageScale="1" pageWidth="827" pageHeight="1169" background="none" math="0" shadow="0"><root><mxCell id="0"/><mxCell id="1" parent="0"/><mxCell id="5lTu8dcaC-K2s0UTSZmU-24" style="edgeStyle=orthogonalEdgeStyle;html=1;exitX=0.674;exitY=1.013;exitDx=0;exitDy=0;entryX=1;entryY=0.5;entryDx=0;entryDy=0;entryPerimeter=0;strokeColor=#005700;endArrow=none;endFill=0;exitPerimeter=0;fillColor=#008a00;" parent="1" source="5lTu8dcaC-K2s0UTSZmU-1" target="5lTu8dcaC-K2s0UTSZmU-23" edge="1"><mxGeometry relative="1" as="geometry"/></mxCell><mxCell id="Dqz88kb-FHzcmxErnvod-14" style="edgeStyle=orthogonalEdgeStyle;html=1;dashed=1;endArrow=open;endFill=0;entryX=1;entryY=0.5;entryDx=0;entryDy=0;exitX=1;exitY=0.5;exitDx=0;exitDy=0;" parent="1" source="5lTu8dcaC-K2s0UTSZmU-1" target="8" edge="1"><mxGeometry relative="1" as="geometry"><mxPoint x="2411" y="2480" as="targetPoint"/><Array as="points"><mxPoint x="2345" y="1824"/><mxPoint x="2345" y="2673"/></Array></mxGeometry></mxCell><mxCell id="5lTu8dcaC-K2s0UTSZmU-1" value="Core" style="html=1;dropTarget=0;" parent="1" vertex="1"><mxGeometry x="1552.5" y="1779" width="399" height="90" as="geometry"/></mxCell><mxCell id="5lTu8dcaC-K2s0UTSZmU-2" value="" style="shape=module;jettyWidth=8;jettyHeight=4;" parent="5lTu8dcaC-K2s0UTSZmU-1" vertex="1"><mxGeometry x="1" width="20" height="20" relative="1" as="geometry"><mxPoint x="-27" y="7" as="offset"/></mxGeometry></mxCell><mxCell id="Dqz88kb-FHzcmxErnvod-9" style="edgeStyle=none;html=1;entryX=0.5;entryY=0;entryDx=0;entryDy=0;dashed=1;endArrow=open;endFill=0;exitX=0.508;exitY=0.998;exitDx=0;exitDy=0;exitPerimeter=0;" parent="1" source="5lTu8dcaC-K2s0UTSZmU-3" target="8" edge="1"><mxGeometry relative="1" as="geometry"><Array as="points"><mxPoint x="1753" y="2433"/></Array></mxGeometry></mxCell><mxCell id="57" style="edgeStyle=orthogonalEdgeStyle;jumpStyle=arc;jumpSize=10;html=1;exitX=0.33;exitY=0.004;exitDx=0;exitDy=0;endArrow=none;endFill=0;entryX=0;entryY=0.5;entryDx=0;entryDy=0;entryPerimeter=0;exitPerimeter=0;fillColor=#0050ef;strokeColor=#001DBC;" parent="1" source="5lTu8dcaC-K2s0UTSZmU-3" target="Dqz88kb-FHzcmxErnvod-2" edge="1"><mxGeometry relative="1" as="geometry"><mxPoint x="1754.666666666667" y="1957.5" as="targetPoint"/><Array as="points"><mxPoint x="1722" y="2148"/></Array></mxGeometry></mxCell><mxCell id="63" style="edgeStyle=orthogonalEdgeStyle;jumpStyle=arc;jumpSize=10;html=1;endArrow=none;endFill=0;entryX=0;entryY=0.5;entryDx=0;entryDy=0;entryPerimeter=0;fillColor=#60a917;strokeColor=#2D7600;" parent="1" source="5lTu8dcaC-K2s0UTSZmU-3" target="5lTu8dcaC-K2s0UTSZmU-23" edge="1"><mxGeometry relative="1" as="geometry"><mxPoint x="1876.095238095238" y="1907.6666666666665" as="targetPoint"/><Array as="points"><mxPoint x="1752" y="2048"/><mxPoint x="1822" y="2048"/></Array></mxGeometry></mxCell><mxCell id="5lTu8dcaC-K2s0UTSZmU-3" value="&amp;lt;&amp;lt;component&amp;gt;&amp;gt;&lt;br&gt;Player" style="html=1;dropTarget=0;" parent="1" vertex="1"><mxGeometry x="1662" y="2148" width="180" height="90" as="geometry"/></mxCell><mxCell id="5lTu8dcaC-K2s0UTSZmU-4" value="" style="shape=module;jettyWidth=8;jettyHeight=4;" parent="5lTu8dcaC-K2s0UTSZmU-3" vertex="1"><mxGeometry x="1" width="20" height="20" relative="1" as="geometry"><mxPoint x="-27" y="7" as="offset"/></mxGeometry></mxCell><mxCell id="5lTu8dcaC-K2s0UTSZmU-7" style="edgeStyle=none;html=1;exitX=1;exitY=0.5;exitDx=0;exitDy=0;exitPerimeter=0;endArrow=none;endFill=0;entryX=0.425;entryY=1.004;entryDx=0;entryDy=0;entryPerimeter=0;fillColor=#0050ef;strokeColor=#001DBC;" parent="1" source="Dqz88kb-FHzcmxErnvod-2" target="5lTu8dcaC-K2s0UTSZmU-1" edge="1"><mxGeometry relative="1" as="geometry"><mxPoint x="1753" y="1803" as="targetPoint"/></mxGeometry></mxCell><mxCell id="Dqz88kb-FHzcmxErnvod-2" value="" style="shape=providedRequiredInterface;html=1;verticalLabelPosition=bottom;rotation=-90;fillColor=#0050ef;fontColor=#ffffff;strokeColor=#001DBC;" parent="1" vertex="1"><mxGeometry x="1712" y="1906" width="20" height="20" as="geometry"/></mxCell><mxCell id="Dqz88kb-FHzcmxErnvod-10" style="edgeStyle=orthogonalEdgeStyle;html=1;entryX=0.5;entryY=0;entryDx=0;entryDy=0;dashed=1;endArrow=open;endFill=0;" parent="1" source="5lTu8dcaC-K2s0UTSZmU-9" target="8" edge="1"><mxGeometry relative="1" as="geometry"><Array as="points"><mxPoint x="1516" y="2316"/><mxPoint x="1753" y="2316"/><mxPoint x="1753" y="2548"/></Array></mxGeometry></mxCell><mxCell id="56" style="edgeStyle=orthogonalEdgeStyle;jumpStyle=arc;jumpSize=10;html=1;entryX=0;entryY=0.5;entryDx=0;entryDy=0;entryPerimeter=0;endArrow=none;endFill=0;exitX=0.25;exitY=0;exitDx=0;exitDy=0;fillColor=#0050ef;strokeColor=#001DBC;" parent="1" source="5lTu8dcaC-K2s0UTSZmU-9" target="Dqz88kb-FHzcmxErnvod-2" edge="1"><mxGeometry relative="1" as="geometry"><Array as="points"><mxPoint x="1471" y="2025"/><mxPoint x="1722" y="2025"/></Array></mxGeometry></mxCell><mxCell id="62" style="edgeStyle=orthogonalEdgeStyle;jumpStyle=arc;jumpSize=10;html=1;exitX=0.5;exitY=0;exitDx=0;exitDy=0;entryX=0;entryY=0.5;entryDx=0;entryDy=0;entryPerimeter=0;endArrow=none;endFill=0;fillColor=#60a917;strokeColor=#2D7600;" parent="1" source="5lTu8dcaC-K2s0UTSZmU-9" target="5lTu8dcaC-K2s0UTSZmU-23" edge="1"><mxGeometry relative="1" as="geometry"><Array as="points"><mxPoint x="1516" y="2048"/><mxPoint x="1822" y="2048"/></Array></mxGeometry></mxCell><mxCell id="173" style="edgeStyle=orthogonalEdgeStyle;rounded=1;orthogonalLoop=1;jettySize=auto;html=1;exitX=0.25;exitY=1;exitDx=0;exitDy=0;entryX=1;entryY=0.5;entryDx=0;entryDy=0;entryPerimeter=0;startArrow=none;startFill=0;endArrow=none;endFill=0;fillColor=#e3c800;strokeColor=#B09500;" parent="1" source="5lTu8dcaC-K2s0UTSZmU-9" target="17" edge="1"><mxGeometry relative="1" as="geometry"><Array as="points"><mxPoint x="1471" y="2421"/><mxPoint x="1400" y="2421"/></Array></mxGeometry></mxCell><mxCell id="175" style="edgeStyle=orthogonalEdgeStyle;rounded=1;orthogonalLoop=1;jettySize=auto;html=1;exitX=0.75;exitY=1;exitDx=0;exitDy=0;entryX=1;entryY=0.5;entryDx=0;entryDy=0;entryPerimeter=0;startArrow=none;startFill=0;endArrow=none;endFill=0;jumpStyle=arc;jumpSize=10;fillColor=#d80073;strokeColor=#A50040;" parent="1" source="5lTu8dcaC-K2s0UTSZmU-9" target="82" edge="1"><mxGeometry relative="1" as="geometry"/></mxCell><mxCell id="184" style="edgeStyle=orthogonalEdgeStyle;rounded=1;jumpStyle=none;orthogonalLoop=1;jettySize=auto;html=1;exitX=0.75;exitY=0;exitDx=0;exitDy=0;entryX=0;entryY=0.5;entryDx=0;entryDy=0;entryPerimeter=0;endArrow=none;endFill=0;fillColor=#a20025;strokeColor=#6F0000;" edge="1" parent="1" source="5lTu8dcaC-K2s0UTSZmU-9" target="Dqz88kb-FHzcmxErnvod-7"><mxGeometry relative="1" as="geometry"><Array as="points"><mxPoint x="1561" y="1956"/><mxPoint x="1622" y="1956"/></Array></mxGeometry></mxCell><mxCell id="199" style="edgeStyle=orthogonalEdgeStyle;rounded=1;jumpStyle=none;jumpSize=10;orthogonalLoop=1;jettySize=auto;html=1;exitX=1;exitY=0.75;exitDx=0;exitDy=0;entryX=1;entryY=0.5;entryDx=0;entryDy=0;entryPerimeter=0;endArrow=none;endFill=0;fillColor=#6a00ff;strokeColor=#3700CC;" edge="1" parent="1" source="5lTu8dcaC-K2s0UTSZmU-9" target="189"><mxGeometry relative="1" as="geometry"><Array as="points"><mxPoint x="1651" y="2216"/><mxPoint x="1651" y="2449"/></Array></mxGeometry></mxCell><mxCell id="5lTu8dcaC-K2s0UTSZmU-9" value="&amp;lt;&amp;lt;component&amp;gt;&amp;gt;&lt;br&gt;EnemyOctorok" style="html=1;dropTarget=0;" parent="1" vertex="1"><mxGeometry x="1426" y="2148" width="180" height="90" as="geometry"/></mxCell><mxCell id="5lTu8dcaC-K2s0UTSZmU-10" value="" style="shape=module;jettyWidth=8;jettyHeight=4;" parent="5lTu8dcaC-K2s0UTSZmU-9" vertex="1"><mxGeometry x="1" width="20" height="20" relative="1" as="geometry"><mxPoint x="-27" y="7" as="offset"/></mxGeometry></mxCell><mxCell id="Dqz88kb-FHzcmxErnvod-11" style="edgeStyle=orthogonalEdgeStyle;html=1;dashed=1;endArrow=open;endFill=0;entryX=0.5;entryY=0;entryDx=0;entryDy=0;" parent="1" source="5lTu8dcaC-K2s0UTSZmU-11" target="8" edge="1"><mxGeometry relative="1" as="geometry"><mxPoint x="1833.896551724138" y="2397.965500404095" as="targetPoint"/><Array as="points"><mxPoint x="1988" y="2316"/><mxPoint x="1753" y="2316"/><mxPoint x="1753" y="2548"/></Array></mxGeometry></mxCell><mxCell id="64" style="edgeStyle=orthogonalEdgeStyle;jumpStyle=arc;jumpSize=10;html=1;entryX=0;entryY=0.5;entryDx=0;entryDy=0;entryPerimeter=0;endArrow=none;endFill=0;fillColor=#60a917;strokeColor=#2D7600;" parent="1" source="5lTu8dcaC-K2s0UTSZmU-11" target="5lTu8dcaC-K2s0UTSZmU-23" edge="1"><mxGeometry relative="1" as="geometry"><Array as="points"><mxPoint x="1988" y="2048"/><mxPoint x="1822" y="2048"/></Array></mxGeometry></mxCell><mxCell id="188" style="edgeStyle=orthogonalEdgeStyle;rounded=1;jumpStyle=none;orthogonalLoop=1;jettySize=auto;html=1;exitX=0.75;exitY=0;exitDx=0;exitDy=0;entryX=0;entryY=0.5;entryDx=0;entryDy=0;entryPerimeter=0;endArrow=none;endFill=0;fillColor=#a20025;strokeColor=#6F0000;" edge="1" parent="1" source="5lTu8dcaC-K2s0UTSZmU-11" target="Dqz88kb-FHzcmxErnvod-7"><mxGeometry relative="1" as="geometry"><Array as="points"><mxPoint x="2033" y="1956"/><mxPoint x="1622" y="1956"/></Array></mxGeometry></mxCell><mxCell id="5lTu8dcaC-K2s0UTSZmU-11" value="&amp;lt;&amp;lt;component&amp;gt;&amp;gt;&lt;br&gt;Map" style="html=1;dropTarget=0;" parent="1" vertex="1"><mxGeometry x="1898" y="2148" width="180" height="90" as="geometry"/></mxCell><mxCell id="5lTu8dcaC-K2s0UTSZmU-12" value="" style="shape=module;jettyWidth=8;jettyHeight=4;" parent="5lTu8dcaC-K2s0UTSZmU-11" vertex="1"><mxGeometry x="1" width="20" height="20" relative="1" as="geometry"><mxPoint x="-27" y="7" as="offset"/></mxGeometry></mxCell><mxCell id="Dqz88kb-FHzcmxErnvod-12" style="edgeStyle=orthogonalEdgeStyle;html=1;entryX=0.5;entryY=0;entryDx=0;entryDy=0;dashed=1;endArrow=open;endFill=0;" parent="1" source="5lTu8dcaC-K2s0UTSZmU-13" target="8" edge="1"><mxGeometry relative="1" as="geometry"><Array as="points"><mxPoint x="2224" y="2316"/><mxPoint x="1753" y="2316"/><mxPoint x="1753" y="2548"/></Array></mxGeometry></mxCell><mxCell id="59" style="edgeStyle=orthogonalEdgeStyle;jumpStyle=none;jumpSize=10;html=1;exitX=0.25;exitY=0;exitDx=0;exitDy=0;entryX=0;entryY=0.5;entryDx=0;entryDy=0;entryPerimeter=0;endArrow=none;endFill=0;fillColor=#0050ef;strokeColor=#001DBC;" parent="1" source="5lTu8dcaC-K2s0UTSZmU-13" target="Dqz88kb-FHzcmxErnvod-2" edge="1"><mxGeometry relative="1" as="geometry"><Array as="points"><mxPoint x="2179" y="2025"/><mxPoint x="1722" y="2025"/></Array></mxGeometry></mxCell><mxCell id="65" style="edgeStyle=orthogonalEdgeStyle;jumpStyle=arc;jumpSize=10;html=1;entryX=0;entryY=0.5;entryDx=0;entryDy=0;entryPerimeter=0;endArrow=none;endFill=0;fillColor=#60a917;strokeColor=#2D7600;" parent="1" source="5lTu8dcaC-K2s0UTSZmU-13" target="5lTu8dcaC-K2s0UTSZmU-23" edge="1"><mxGeometry relative="1" as="geometry"><Array as="points"><mxPoint x="2224" y="2048"/><mxPoint x="1822" y="2048"/></Array></mxGeometry></mxCell><mxCell id="5lTu8dcaC-K2s0UTSZmU-13" value="&amp;lt;&amp;lt;component&amp;gt;&amp;gt;&lt;br&gt;Sword" style="html=1;dropTarget=0;" parent="1" vertex="1"><mxGeometry x="2134" y="2148" width="180" height="90" as="geometry"/></mxCell><mxCell id="5lTu8dcaC-K2s0UTSZmU-14" value="" style="shape=module;jettyWidth=8;jettyHeight=4;" parent="5lTu8dcaC-K2s0UTSZmU-13" vertex="1"><mxGeometry x="1" width="20" height="20" relative="1" as="geometry"><mxPoint x="-27" y="7" as="offset"/></mxGeometry></mxCell><mxCell id="Dqz88kb-FHzcmxErnvod-5" value="Processing service" style="text;html=1;strokeColor=none;fillColor=none;align=center;verticalAlign=middle;whiteSpace=wrap;rounded=0;" parent="1" vertex="1"><mxGeometry x="1642" y="1896.5" width="74" height="39" as="geometry"/></mxCell><mxCell id="Dqz88kb-FHzcmxErnvod-13" style="edgeStyle=orthogonalEdgeStyle;html=1;entryX=0.5;entryY=0;entryDx=0;entryDy=0;dashed=1;endArrow=open;endFill=0;" parent="1" source="5lTu8dcaC-K2s0UTSZmU-15" target="8" edge="1"><mxGeometry relative="1" as="geometry"><Array as="points"><mxPoint x="1280" y="2316"/><mxPoint x="1754" y="2316"/></Array></mxGeometry></mxCell><mxCell id="29" style="edgeStyle=orthogonalEdgeStyle;jumpStyle=arc;jumpSize=10;html=1;entryX=0;entryY=0.5;entryDx=0;entryDy=0;entryPerimeter=0;endArrow=none;endFill=0;fillColor=#fa6800;strokeColor=#C73500;" parent="1" source="5lTu8dcaC-K2s0UTSZmU-15" target="28" edge="1"><mxGeometry relative="1" as="geometry"><Array as="points"><mxPoint x="1157" y="2193"/><mxPoint x="1157" y="2386"/><mxPoint x="1044" y="2386"/></Array></mxGeometry></mxCell><mxCell id="61" style="edgeStyle=orthogonalEdgeStyle;jumpStyle=arc;jumpSize=10;html=1;exitX=0.5;exitY=0;exitDx=0;exitDy=0;entryX=0;entryY=0.5;entryDx=0;entryDy=0;entryPerimeter=0;endArrow=none;endFill=0;fillColor=#60a917;strokeColor=#2D7600;" parent="1" source="5lTu8dcaC-K2s0UTSZmU-15" target="5lTu8dcaC-K2s0UTSZmU-23" edge="1"><mxGeometry relative="1" as="geometry"><Array as="points"><mxPoint x="1280" y="2048"/><mxPoint x="1822" y="2048"/></Array></mxGeometry></mxCell><mxCell id="73" style="edgeStyle=orthogonalEdgeStyle;jumpStyle=arc;jumpSize=10;html=1;exitX=0.25;exitY=0;exitDx=0;exitDy=0;entryX=0;entryY=0.5;entryDx=0;entryDy=0;entryPerimeter=0;endArrow=none;endFill=0;fillColor=#0050ef;strokeColor=#001DBC;" parent="1" source="5lTu8dcaC-K2s0UTSZmU-15" target="Dqz88kb-FHzcmxErnvod-2" edge="1"><mxGeometry relative="1" as="geometry"><Array as="points"><mxPoint x="1235" y="2025"/><mxPoint x="1722" y="2025"/></Array></mxGeometry></mxCell><mxCell id="93" style="edgeStyle=orthogonalEdgeStyle;jumpStyle=arc;jumpSize=10;html=1;exitX=0.75;exitY=1;exitDx=0;exitDy=0;entryX=1;entryY=0.5;entryDx=0;entryDy=0;entryPerimeter=0;endArrow=none;endFill=0;fillColor=#d80073;strokeColor=#A50040;" parent="1" source="5lTu8dcaC-K2s0UTSZmU-15" target="82" edge="1"><mxGeometry relative="1" as="geometry"><Array as="points"><mxPoint x="1325" y="2355"/></Array></mxGeometry></mxCell><mxCell id="180" style="edgeStyle=orthogonalEdgeStyle;rounded=1;jumpStyle=none;orthogonalLoop=1;jettySize=auto;html=1;exitX=0.75;exitY=0;exitDx=0;exitDy=0;entryX=0;entryY=0.5;entryDx=0;entryDy=0;entryPerimeter=0;endArrow=none;endFill=0;fillColor=#a20025;strokeColor=#6F0000;" edge="1" parent="1" source="5lTu8dcaC-K2s0UTSZmU-15" target="Dqz88kb-FHzcmxErnvod-7"><mxGeometry relative="1" as="geometry"><Array as="points"><mxPoint x="1325" y="1956"/><mxPoint x="1622" y="1956"/></Array></mxGeometry></mxCell><mxCell id="198" style="edgeStyle=orthogonalEdgeStyle;rounded=1;jumpStyle=none;jumpSize=10;orthogonalLoop=1;jettySize=auto;html=1;exitX=1;exitY=0.75;exitDx=0;exitDy=0;entryX=1;entryY=0.5;entryDx=0;entryDy=0;entryPerimeter=0;endArrow=none;endFill=0;fillColor=#6a00ff;strokeColor=#3700CC;" edge="1" parent="1" source="5lTu8dcaC-K2s0UTSZmU-15" target="189"><mxGeometry relative="1" as="geometry"><Array as="points"><mxPoint x="1417" y="2216"/><mxPoint x="1417" y="2449"/></Array></mxGeometry></mxCell><mxCell id="5lTu8dcaC-K2s0UTSZmU-15" value="&amp;lt;&amp;lt;component&amp;gt;&amp;gt;&lt;br&gt;EnemyMoblin" style="html=1;dropTarget=0;" parent="1" vertex="1"><mxGeometry x="1190" y="2148" width="180" height="90" as="geometry"/></mxCell><mxCell id="5lTu8dcaC-K2s0UTSZmU-16" value="" style="shape=module;jettyWidth=8;jettyHeight=4;" parent="5lTu8dcaC-K2s0UTSZmU-15" vertex="1"><mxGeometry x="1" width="20" height="20" relative="1" as="geometry"><mxPoint x="-27" y="7" as="offset"/></mxGeometry></mxCell><mxCell id="96" style="edgeStyle=orthogonalEdgeStyle;jumpStyle=arc;jumpSize=10;html=1;entryX=0;entryY=0.5;entryDx=0;entryDy=0;endArrow=open;endFill=0;dashed=1;startArrow=none;startFill=0;" parent="1" source="5" target="8" edge="1"><mxGeometry relative="1" as="geometry"><Array as="points"><mxPoint x="915" y="1956"/><mxPoint x="915" y="2673"/></Array></mxGeometry></mxCell><mxCell id="97" style="edgeStyle=orthogonalEdgeStyle;jumpStyle=none;jumpSize=10;html=1;entryX=0;entryY=0.5;entryDx=0;entryDy=0;entryPerimeter=0;endArrow=none;endFill=0;fillColor=#a20025;strokeColor=#6F0000;" parent="1" source="5" target="Dqz88kb-FHzcmxErnvod-7" edge="1"><mxGeometry relative="1" as="geometry"/></mxCell><mxCell id="5" value="&amp;lt;&amp;lt;component&amp;gt;&amp;gt;&lt;br&gt;Collision" style="html=1;dropTarget=0;" parent="1" vertex="1"><mxGeometry x="954" y="1911" width="180" height="90" as="geometry"/></mxCell><mxCell id="6" value="" style="shape=module;jettyWidth=8;jettyHeight=4;" parent="5" vertex="1"><mxGeometry x="1" width="20" height="20" relative="1" as="geometry"><mxPoint x="-27" y="7" as="offset"/></mxGeometry></mxCell><mxCell id="s5my0ecmpizXD4HZRtwD-12" style="edgeStyle=none;html=1;entryX=0.174;entryY=1.004;entryDx=0;entryDy=0;endArrow=none;endFill=0;entryPerimeter=0;fillColor=#a20025;strokeColor=#6F0000;" parent="1" source="Dqz88kb-FHzcmxErnvod-7" target="5lTu8dcaC-K2s0UTSZmU-1" edge="1"><mxGeometry relative="1" as="geometry"/></mxCell><mxCell id="Dqz88kb-FHzcmxErnvod-7" value="" style="shape=providedRequiredInterface;html=1;verticalLabelPosition=bottom;rotation=-90;fillColor=#a20025;fontColor=#ffffff;strokeColor=#6F0000;" parent="1" vertex="1"><mxGeometry x="1612" y="1906" width="20" height="20" as="geometry"/></mxCell><mxCell id="Dqz88kb-FHzcmxErnvod-8" value="Post&lt;br&gt;Processing service" style="text;html=1;strokeColor=none;fillColor=none;align=center;verticalAlign=middle;whiteSpace=wrap;rounded=0;" parent="1" vertex="1"><mxGeometry x="1533" y="1893" width="81" height="46" as="geometry"/></mxCell><mxCell id="5lTu8dcaC-K2s0UTSZmU-23" value="" style="shape=providedRequiredInterface;html=1;verticalLabelPosition=bottom;rotation=-90;fillColor=#008a00;fontColor=#ffffff;strokeColor=#005700;" parent="1" vertex="1"><mxGeometry x="1812" y="1906" width="20" height="20" as="geometry"/></mxCell><mxCell id="5lTu8dcaC-K2s0UTSZmU-25" value="Plugin service" style="text;html=1;strokeColor=none;fillColor=none;align=center;verticalAlign=middle;whiteSpace=wrap;rounded=0;" parent="1" vertex="1"><mxGeometry x="1759" y="1896.5" width="53" height="39" as="geometry"/></mxCell><mxCell id="8" value="&amp;lt;&amp;lt;component&amp;gt;&amp;gt;&lt;br&gt;&amp;lt;&amp;lt;library&amp;gt;&amp;gt;&lt;br&gt;Common" style="html=1;dropTarget=0;" parent="1" vertex="1"><mxGeometry x="1664" y="2628" width="180" height="90" as="geometry"/></mxCell><mxCell id="9" value="" style="shape=module;jettyWidth=8;jettyHeight=4;" parent="8" vertex="1"><mxGeometry x="1" width="20" height="20" relative="1" as="geometry"><mxPoint x="-27" y="7" as="offset"/></mxGeometry></mxCell><mxCell id="18" style="edgeStyle=orthogonalEdgeStyle;html=1;entryX=0;entryY=0.5;entryDx=0;entryDy=0;entryPerimeter=0;endArrow=none;endFill=0;fillColor=#e3c800;strokeColor=#B09500;" parent="1" source="10" target="17" edge="1"><mxGeometry relative="1" as="geometry"><Array as="points"><mxPoint x="1627" y="2491"/><mxPoint x="1400" y="2491"/></Array></mxGeometry></mxCell><mxCell id="203" style="edgeStyle=orthogonalEdgeStyle;rounded=1;jumpStyle=none;jumpSize=10;orthogonalLoop=1;jettySize=auto;html=1;exitX=0.5;exitY=1;exitDx=0;exitDy=0;entryX=0;entryY=0.5;entryDx=0;entryDy=0;dashed=1;endArrow=open;endFill=0;" edge="1" parent="1" source="10" target="8"><mxGeometry relative="1" as="geometry"/></mxCell><mxCell id="10" value="&amp;lt;&amp;lt;component&amp;gt;&amp;gt;&lt;br&gt;KeyboardControl" style="html=1;dropTarget=0;" parent="1" vertex="1"><mxGeometry x="1527" y="2516" width="180" height="90" as="geometry"/></mxCell><mxCell id="11" value="" style="shape=module;jettyWidth=8;jettyHeight=4;" parent="10" vertex="1"><mxGeometry x="1" width="20" height="20" relative="1" as="geometry"><mxPoint x="-27" y="7" as="offset"/></mxGeometry></mxCell><mxCell id="204" style="edgeStyle=orthogonalEdgeStyle;rounded=1;jumpStyle=none;jumpSize=10;orthogonalLoop=1;jettySize=auto;html=1;exitX=0.5;exitY=1;exitDx=0;exitDy=0;entryX=0;entryY=0.5;entryDx=0;entryDy=0;dashed=1;endArrow=open;endFill=0;" edge="1" parent="1" source="12" target="8"><mxGeometry relative="1" as="geometry"/></mxCell><mxCell id="12" value="&amp;lt;&amp;lt;component&amp;gt;&amp;gt;&lt;br&gt;AI-Random" style="html=1;dropTarget=0;" parent="1" vertex="1"><mxGeometry x="1335" y="2516" width="180" height="90" as="geometry"/></mxCell><mxCell id="20" style="edgeStyle=orthogonalEdgeStyle;html=1;entryX=0.339;entryY=1.002;entryDx=0;entryDy=0;endArrow=none;endFill=0;jumpStyle=arc;jumpSize=10;entryPerimeter=0;fillColor=#e3c800;strokeColor=#B09500;" parent="1" source="17" target="5lTu8dcaC-K2s0UTSZmU-3" edge="1"><mxGeometry relative="1" as="geometry"><Array as="points"><mxPoint x="1400" y="2421"/><mxPoint x="1723" y="2421"/></Array></mxGeometry></mxCell><mxCell id="21" style="edgeStyle=orthogonalEdgeStyle;jumpStyle=arc;jumpSize=10;html=1;exitX=1;exitY=0.5;exitDx=0;exitDy=0;exitPerimeter=0;entryX=0.25;entryY=1;entryDx=0;entryDy=0;endArrow=none;endFill=0;fillColor=#e3c800;strokeColor=#B09500;" parent="1" source="17" target="5lTu8dcaC-K2s0UTSZmU-15" edge="1"><mxGeometry relative="1" as="geometry"><Array as="points"><mxPoint x="1400" y="2420"/><mxPoint x="1235" y="2420"/></Array></mxGeometry></mxCell><mxCell id="119" style="edgeStyle=orthogonalEdgeStyle;rounded=1;orthogonalLoop=1;jettySize=auto;html=1;entryX=0.564;entryY=0.002;entryDx=0;entryDy=0;entryPerimeter=0;strokeWidth=1;endArrow=none;endFill=0;fillColor=#e3c800;strokeColor=#B09500;" parent="1" source="17" target="110" edge="1"><mxGeometry relative="1" as="geometry"><Array as="points"><mxPoint x="1400" y="2491"/><mxPoint x="1244" y="2491"/><mxPoint x="1244" y="2516"/></Array></mxGeometry></mxCell><mxCell id="123" style="edgeStyle=orthogonalEdgeStyle;rounded=1;orthogonalLoop=1;jettySize=auto;html=1;strokeWidth=1;endArrow=none;endFill=0;fillColor=#e3c800;strokeColor=#B09500;" parent="1" source="17" target="113" edge="1"><mxGeometry relative="1" as="geometry"><Array as="points"><mxPoint x="1400" y="2491"/><mxPoint x="1041" y="2491"/></Array></mxGeometry></mxCell><mxCell id="161" style="edgeStyle=orthogonalEdgeStyle;rounded=1;orthogonalLoop=1;jettySize=auto;html=1;startArrow=none;startFill=0;endArrow=none;endFill=0;entryX=0.361;entryY=0.004;entryDx=0;entryDy=0;entryPerimeter=0;fillColor=#e3c800;strokeColor=#B09500;" parent="1" source="17" target="12" edge="1"><mxGeometry relative="1" as="geometry"><mxPoint x="1418" y="2508" as="targetPoint"/><Array as="points"/></mxGeometry></mxCell><mxCell id="17" value="" style="shape=providedRequiredInterface;html=1;verticalLabelPosition=bottom;sketch=0;rotation=-90;fillColor=#e3c800;fontColor=#000000;strokeColor=#B09500;" parent="1" vertex="1"><mxGeometry x="1390" y="2459" width="20" height="20" as="geometry"/></mxCell><mxCell id="22" value="Control" style="text;html=1;strokeColor=none;fillColor=none;align=center;verticalAlign=middle;whiteSpace=wrap;rounded=0;" parent="1" vertex="1"><mxGeometry x="1405" y="2449" width="81" height="46" as="geometry"/></mxCell><mxCell id="54" style="edgeStyle=orthogonalEdgeStyle;jumpStyle=arc;jumpSize=10;html=1;exitX=0.25;exitY=0;exitDx=0;exitDy=0;entryX=0;entryY=0.5;entryDx=0;entryDy=0;entryPerimeter=0;endArrow=none;endFill=0;fillColor=#0050ef;strokeColor=#001DBC;" parent="1" source="25" target="Dqz88kb-FHzcmxErnvod-2" edge="1"><mxGeometry relative="1" as="geometry"><Array as="points"><mxPoint x="999" y="2025"/><mxPoint x="1722" y="2025"/></Array></mxGeometry></mxCell><mxCell id="60" style="edgeStyle=orthogonalEdgeStyle;jumpStyle=arc;jumpSize=10;html=1;entryX=0;entryY=0.5;entryDx=0;entryDy=0;entryPerimeter=0;endArrow=none;endFill=0;fillColor=#60a917;strokeColor=#2D7600;" parent="1" source="25" target="5lTu8dcaC-K2s0UTSZmU-23" edge="1"><mxGeometry relative="1" as="geometry"><Array as="points"><mxPoint x="1044" y="2048"/><mxPoint x="1822" y="2048"/></Array></mxGeometry></mxCell><mxCell id="202" style="edgeStyle=orthogonalEdgeStyle;rounded=1;jumpStyle=none;jumpSize=10;orthogonalLoop=1;jettySize=auto;html=1;exitX=0;exitY=0.5;exitDx=0;exitDy=0;entryX=0;entryY=0.5;entryDx=0;entryDy=0;dashed=1;endArrow=open;endFill=0;" edge="1" parent="1" source="25" target="8"><mxGeometry relative="1" as="geometry"><Array as="points"><mxPoint x="914" y="2193"/><mxPoint x="914" y="2673"/></Array></mxGeometry></mxCell><mxCell id="25" value="&amp;lt;&amp;lt;component&amp;gt;&amp;gt;&lt;br&gt;EnemySpawner" style="html=1;dropTarget=0;" parent="1" vertex="1"><mxGeometry x="954" y="2148" width="180" height="90" as="geometry"/></mxCell><mxCell id="26" value="" style="shape=module;jettyWidth=8;jettyHeight=4;" parent="25" vertex="1"><mxGeometry x="1" width="20" height="20" relative="1" as="geometry"><mxPoint x="-27" y="7" as="offset"/></mxGeometry></mxCell><mxCell id="30" style="edgeStyle=orthogonalEdgeStyle;jumpStyle=arc;jumpSize=10;html=1;entryX=0.5;entryY=1;entryDx=0;entryDy=0;endArrow=none;endFill=0;fillColor=#fa6800;strokeColor=#C73500;" parent="1" source="28" target="25" edge="1"><mxGeometry relative="1" as="geometry"/></mxCell><mxCell id="28" value="" style="shape=providedRequiredInterface;html=1;verticalLabelPosition=bottom;sketch=0;rotation=-90;fillColor=#fa6800;fontColor=#000000;strokeColor=#C73500;" parent="1" vertex="1"><mxGeometry x="1034" y="2294" width="20" height="20" as="geometry"/></mxCell><mxCell id="178" style="edgeStyle=orthogonalEdgeStyle;rounded=1;jumpStyle=arc;jumpSize=10;orthogonalLoop=1;jettySize=auto;html=1;exitX=0;exitY=0.75;exitDx=0;exitDy=0;entryX=0.155;entryY=1.009;entryDx=0;entryDy=0;entryPerimeter=0;startArrow=none;startFill=0;endArrow=none;endFill=0;fillColor=#fa6800;strokeColor=#C73500;" parent="1" source="34" target="5lTu8dcaC-K2s0UTSZmU-9" edge="1"><mxGeometry relative="1" as="geometry"><Array as="points"><mxPoint x="1044" y="2387"/><mxPoint x="1454" y="2387"/></Array></mxGeometry></mxCell><mxCell id="34" value="Spawnable Enemy" style="text;html=1;strokeColor=none;fillColor=none;align=center;verticalAlign=middle;whiteSpace=wrap;rounded=0;" parent="1" vertex="1"><mxGeometry x="1044" y="2281" width="81" height="46" as="geometry"/></mxCell><mxCell id="94" style="edgeStyle=orthogonalEdgeStyle;jumpStyle=arc;jumpSize=10;html=1;exitX=0;exitY=0.5;exitDx=0;exitDy=0;exitPerimeter=0;entryX=0.277;entryY=0.987;entryDx=0;entryDy=0;entryPerimeter=0;endArrow=none;endFill=0;fillColor=#d80073;strokeColor=#A50040;" parent="1" source="82" target="5lTu8dcaC-K2s0UTSZmU-13" edge="1"><mxGeometry relative="1" as="geometry"/></mxCell><mxCell id="82" value="" style="shape=providedRequiredInterface;html=1;verticalLabelPosition=bottom;sketch=0;rotation=-180;fillColor=#d80073;fontColor=#ffffff;strokeColor=#A50040;" parent="1" vertex="1"><mxGeometry x="1866" y="2345" width="20" height="20" as="geometry"/></mxCell><mxCell id="85" value="Combat" style="text;html=1;strokeColor=none;fillColor=none;align=center;verticalAlign=middle;whiteSpace=wrap;rounded=0;" parent="1" vertex="1"><mxGeometry x="1838" y="2355" width="81" height="46" as="geometry"/></mxCell><mxCell id="92" style="edgeStyle=orthogonalEdgeStyle;jumpStyle=arc;jumpSize=10;html=1;exitX=0.75;exitY=1;exitDx=0;exitDy=0;entryX=1;entryY=0.5;entryDx=0;entryDy=0;entryPerimeter=0;endArrow=none;endFill=0;fillColor=#d80073;strokeColor=#A50040;" parent="1" source="5lTu8dcaC-K2s0UTSZmU-3" target="82" edge="1"><mxGeometry relative="1" as="geometry"/></mxCell><mxCell id="196" style="edgeStyle=orthogonalEdgeStyle;rounded=1;jumpStyle=arc;orthogonalLoop=1;jettySize=auto;html=1;exitX=0.75;exitY=0;exitDx=0;exitDy=0;entryX=1;entryY=0.5;entryDx=0;entryDy=0;entryPerimeter=0;endArrow=none;endFill=0;jumpSize=10;fillColor=#6a00ff;strokeColor=#3700CC;" edge="1" parent="1" source="110" target="189"><mxGeometry relative="1" as="geometry"/></mxCell><mxCell id="205" style="edgeStyle=orthogonalEdgeStyle;rounded=1;jumpStyle=none;jumpSize=10;orthogonalLoop=1;jettySize=auto;html=1;exitX=0.5;exitY=1;exitDx=0;exitDy=0;entryX=0;entryY=0.5;entryDx=0;entryDy=0;dashed=1;endArrow=open;endFill=0;" edge="1" parent="1" source="110" target="8"><mxGeometry relative="1" as="geometry"/></mxCell><mxCell id="110" value="&amp;lt;&amp;lt;component&amp;gt;&amp;gt;&lt;br&gt;AI-Simple" style="html=1;dropTarget=0;" parent="1" vertex="1"><mxGeometry x="1143" y="2516" width="180" height="90" as="geometry"/></mxCell><mxCell id="111" value="" style="shape=module;jettyWidth=8;jettyHeight=4;" parent="110" vertex="1"><mxGeometry x="1" width="20" height="20" relative="1" as="geometry"><mxPoint x="-27" y="7" as="offset"/></mxGeometry></mxCell><mxCell id="197" style="edgeStyle=orthogonalEdgeStyle;rounded=1;jumpStyle=arc;orthogonalLoop=1;jettySize=auto;html=1;exitX=0.75;exitY=0;exitDx=0;exitDy=0;entryX=1;entryY=0.5;entryDx=0;entryDy=0;entryPerimeter=0;endArrow=none;endFill=0;jumpSize=10;fillColor=#6a00ff;strokeColor=#3700CC;" edge="1" parent="1" source="113" target="189"><mxGeometry relative="1" as="geometry"/></mxCell><mxCell id="206" style="edgeStyle=orthogonalEdgeStyle;rounded=1;jumpStyle=none;jumpSize=10;orthogonalLoop=1;jettySize=auto;html=1;exitX=0.5;exitY=1;exitDx=0;exitDy=0;dashed=1;endArrow=open;endFill=0;entryX=0;entryY=0.5;entryDx=0;entryDy=0;" edge="1" parent="1" source="113" target="8"><mxGeometry relative="1" as="geometry"/></mxCell><mxCell id="113" value="&amp;lt;&amp;lt;component&amp;gt;&amp;gt;&lt;br&gt;AI-Smart" style="html=1;dropTarget=0;" parent="1" vertex="1"><mxGeometry x="950" y="2517" width="180" height="90" as="geometry"/></mxCell><mxCell id="114" value="" style="shape=module;jettyWidth=8;jettyHeight=4;" parent="113" vertex="1"><mxGeometry x="1" width="20" height="20" relative="1" as="geometry"><mxPoint x="-27" y="7" as="offset"/></mxGeometry></mxCell><mxCell id="179" value="" style="shape=module;jettyWidth=8;jettyHeight=4;" parent="1" vertex="1"><mxGeometry x="1486" y="2523" width="20" height="20" as="geometry"/></mxCell><mxCell id="200" style="edgeStyle=orthogonalEdgeStyle;rounded=1;jumpStyle=none;jumpSize=10;orthogonalLoop=1;jettySize=auto;html=1;exitX=0;exitY=0.5;exitDx=0;exitDy=0;exitPerimeter=0;entryX=0.25;entryY=1;entryDx=0;entryDy=0;endArrow=none;endFill=0;fillColor=#6a00ff;strokeColor=#3700CC;" edge="1" parent="1" source="189" target="5lTu8dcaC-K2s0UTSZmU-11"><mxGeometry relative="1" as="geometry"/></mxCell><mxCell id="189" value="" style="shape=providedRequiredInterface;html=1;verticalLabelPosition=bottom;sketch=0;rotation=-180;fillColor=#6a00ff;fontColor=#ffffff;strokeColor=#3700CC;" vertex="1" parent="1"><mxGeometry x="1866" y="2439" width="20" height="20" as="geometry"/></mxCell><mxCell id="190" value="Map" style="text;html=1;strokeColor=none;fillColor=none;align=center;verticalAlign=middle;whiteSpace=wrap;rounded=0;" vertex="1" parent="1"><mxGeometry x="1835.5" y="2453" width="81" height="46" as="geometry"/></mxCell></root></mxGraphModel></diagram></mxfile>